# xmcd
#
# Track frame offsets:
#	150
#	35865
#	59378
#	78283
#	96428
#	113245
#	134845
#	153135
#	176188
#	192785
#	216533
#
# Disc length: 3222 seconds
#
# Revision: 1
# Processed by: cddbd v1.5.1PL0 Copyright (c) Steve Scherf et al.
# Submitted via: dBpowerAMP V4.0
#
DISCID=a50c940b
DTITLE=Roach Thompson - Hot Blues
DYEAR=1992
DGENRE=Blues
TTITLE0=Classy Chassy
TTITLE1=Reconsider Baby
TTITLE2=Walkin' so Long
TTITLE3=Rockin' Good Way
TTITLE4=All my Whole Life
TTITLE5=I Don't Care
TTITLE6=Gonna Get my Baby
TTITLE7=Down The Road You Go
TTITLE8=Wait a Minute Baby
TTITLE9=Roach's After Hours
TTITLE10=Forever Man
EXTD=only updating release date.
EXTT0=
EXTT1=
EXTT2=
EXTT3=
EXTT4=
EXTT5=
EXTT6=
EXTT7=
EXTT8=
EXTT9=
EXTT10=
PLAYORDER=
